<?xml version="1.0" encoding="utf-8"?>
<!-- Generator: Adobe Illustrator 24.1.1, SVG Export Plug-In . SVG Version: 6.00 Build 0)  -->
<svg version="1.1" id="Layer_1" xmlns="http://www.w3.org/2000/svg" xmlns:xlink="http://www.w3.org/1999/xlink" x="0px" y="0px"
	 viewBox="0 0 180 31" style="enable-background:new 0 0 180 31;" xml:space="preserve">
<style type="text/css">
	.st0{fill:#08436A;}
	.st1{fill:#447C3B;}
</style>
<g>
	<path class="st0" d="M0.2,30.4V0.6h13.9c2.3,0,4.2,0.7,5.7,2.2c1.5,1.4,2.3,3.3,2.3,5.4c0,2.9-1.4,5-3.8,6c3.9,0.8,6,3.6,6,7.4
		c0,2.5-0.9,4.7-2.6,6.3c-1.7,1.7-3.9,2.5-6.5,2.5H0.2z M8.4,12.5h3.9c1.5,0,2.5-1.1,2.5-2.7c0-1.5-1.1-2.6-2.5-2.6H8.4V12.5z
		 M8.4,23.7h5.1c1.8,0,3-1.2,3-2.9c0-1.6-1.2-2.8-3.1-2.8h-5V23.7z"/>
	<path class="st0" d="M26.6,30.4V0.6h13.6c3,0,5.5,1,7.6,3c2.1,2,3.1,4.4,3.1,7.3c0,3.8-2,7.1-5.1,8.5l7.5,11.1h-9.3l-6.1-9.3h-0.1
		h-3v9.3H26.6z M34.7,14.6h4.5c2.2,0,3.5-1.3,3.5-3.5c0-1.9-1.2-3.2-2.8-3.2h-5.2V14.6z"/>
	<path class="st0" d="M54.4,30.4V0.6h22v7.3H62.5V12h12.9v6.7H62.5v4.5h14.2v7.2H54.4z"/>
	<path class="st0" d="M83,20.1c1.6,2.2,4.3,3.7,7.5,3.7c2.7,0,4-0.7,4-2.1c0-0.8-0.5-1.4-1.7-1.8c-0.6-0.2-1.2-0.4-1.8-0.6
		c-1.2-0.3-3.3-1-4.7-1.5c-4.6-1.7-6.9-4.6-6.9-8.6c0-2.8,1-5,3.1-6.6s4.6-2.4,7.6-2.4c4.9,0,8.6,1.6,11.1,4.8l-5.4,4.6
		c-1.3-1.6-3.1-2.4-5.4-2.4c-2.1,0-3.3,0.8-3.3,1.8c0,0.9,0.3,1.3,1.2,1.7c0.5,0.2,1,0.4,1.5,0.5c1,0.2,3.4,0.9,5.3,1.6
		c5.1,1.8,7.2,4.5,7.2,8.6c0,5.8-4,9.5-11.9,9.5c-3.3,0-6.1-0.6-8.3-1.8c-2.1-1.2-3.8-2.7-4.9-4.5L83,20.1z"/>
	<path class="st0" d="M131.7,6l-5.5,4.6c-1.9-2.1-4.2-3.2-6.9-3.2c-2.3,0-4.2,0.8-5.8,2.3c-1.6,1.5-2.4,3.5-2.4,5.8
		c0,2.3,0.8,4.2,2.4,5.8c1.6,1.5,3.5,2.3,5.8,2.3c2.7,0,5-1.1,6.9-3.2l5.5,4.6c-3.1,3.6-7.5,5.8-12.4,5.8c-4.5,0-8.4-1.5-11.6-4.4
		c-3.1-2.9-4.7-6.6-4.7-11s1.6-8.1,4.7-11c3.2-3,7-4.4,11.6-4.4C124.2,0.1,128.6,2.3,131.7,6z"/>
	<path class="st0" d="M133.6,30.4V0.6h8.1v29.9H133.6z"/>
	<polygon class="st0" points="162.9,0.6 155.5,0.6 143.3,30.4 151.9,30.4 155.6,20.2 159.2,11 162.8,20.2 166.5,30.4 175.1,30.4 	
		"/>
	<polygon class="st1" points="155.1,30.4 159.2,19.5 163.3,30.4 	"/>
	<g>
		<path class="st0" d="M175.7,29.7c-0.5-0.5-0.7-1-0.7-1.7c0-0.7,0.2-1.2,0.7-1.7c0.5-0.5,1-0.7,1.7-0.7c0.7,0,1.2,0.2,1.7,0.7
			c0.5,0.5,0.7,1,0.7,1.7c0,0.7-0.2,1.2-0.7,1.7c-0.5,0.5-1,0.7-1.7,0.7C176.7,30.4,176.1,30.2,175.7,29.7z M179.4,28
			c0-1.2-0.9-2-2-2c-1.1,0-2,0.8-2,2c0,1.2,0.8,2,2,2C178.5,30,179.4,29.2,179.4,28z M176.5,29.3v-2.7h1c0.5,0,0.9,0.4,0.9,0.9
			c0,0.4-0.2,0.6-0.5,0.8l0.7,1.1H178l-0.6-1h-0.5v1H176.5z M176.9,28h0.5c0.3,0,0.5-0.2,0.5-0.5c0-0.3-0.2-0.5-0.5-0.5h-0.5V28z"/>
	</g>
</g>
</svg>
