<?xml version="1.0" encoding="utf-8"?>
<!-- Generator: Adobe Illustrator 24.1.1, SVG Export Plug-In . SVG Version: 6.00 Build 0)  -->
<svg version="1.1" id="Layer_1" xmlns="http://www.w3.org/2000/svg" xmlns:xlink="http://www.w3.org/1999/xlink" x="0px" y="0px"
	 viewBox="0 0 512 512" style="enable-background:new 0 0 512 512;" xml:space="preserve">
<style type="text/css">
	.st0{fill:#08436A;}
</style>
<path class="st0" d="M367.2,412.5C335.9,434.9,297.5,448,256,448s-79.9-13.1-111.2-35.5l58-58c15.8,8.6,34,13.5,53.3,13.5
	s37.4-4.9,53.3-13.5l58,58H367.2z M457.9,413.3c33.8-43.4,54-98,54-157.3s-20.2-113.9-54-157.3c9-12.5,7.9-30.1-3.4-41.3
	S425.8,45,413.3,54C369.9,20.2,315.3,0,256,0S142.1,20.2,98.7,54c-12.5-9-30.1-7.9-41.3,3.4S45,86.2,54,98.7
	C20.2,142.1,0,196.7,0,256s20.2,113.9,54,157.3c-9,12.5-7.9,30.1,3.4,41.3S86.2,467,98.7,458c43.4,33.8,98,54,157.3,54
	s113.9-20.2,157.3-54c12.5,9,30.1,7.9,41.3-3.4S467,425.8,457.9,413.3L457.9,413.3z M412.4,367.2l-58-58c8.6-15.8,13.5-34,13.5-53.3
	s-4.9-37.4-13.5-53.3l58-58C434.9,176.1,448,214.5,448,256S434.9,335.9,412.4,367.2L412.4,367.2z M367.2,99.5l-58,58
	c-15.8-8.6-34-13.5-53.3-13.5s-37.4,4.9-53.3,13.5l-58-58C176.1,77.1,214.5,64,256,64S335.9,77.1,367.2,99.5z M157.5,309.3l-58,58
	C77.1,335.9,64,297.5,64,256s13.1-79.9,35.5-111.2l58,58c-8.6,15.8-13.5,34-13.5,53.3s4.9,37.4,13.5,53.3V309.3z M208,256
	c0-26.5,21.5-48,48-48s48,21.5,48,48s-21.5,48-48,48S208,282.5,208,256z"/>
</svg>
