<?xml version="1.0" encoding="utf-8"?>
<!-- Generator: Adobe Illustrator 24.1.1, SVG Export Plug-In . SVG Version: 6.00 Build 0)  -->
<svg version="1.1" id="Layer_1" xmlns="http://www.w3.org/2000/svg" xmlns:xlink="http://www.w3.org/1999/xlink" x="0px" y="0px"
	 viewBox="0 0 640 512" style="enable-background:new 0 0 640 512;" xml:space="preserve">
<style type="text/css">
	.st0{fill:#08436A;}
</style>
<path class="st0" d="M72,88c0-30.9,25.1-56,56-56s56,25.1,56,56s-25.1,56-56,56S72,118.9,72,88z M64,245.7c-10,11.2-16,26.1-16,42.3
	s6,31.1,16,42.3V245.7z M208.4,196.4C178.7,222.7,160,261.2,160,304c0,34.3,12,65.8,32,90.5V416c0,17.7-14.3,32-32,32H96
	c-17.7,0-32-14.3-32-32v-26.8C26.2,371.2,0,332.7,0,288c0-61.9,50.1-112,112-112h32C168,176,190.2,183.5,208.4,196.4L208.4,196.4z
	 M448,416v-21.5c20-24.7,32-56.2,32-90.5c0-42.8-18.7-81.3-48.4-107.7C449.8,183.5,472,176,496,176h32c61.9,0,112,50.1,112,112
	c0,44.7-26.2,83.2-64,101.2V416c0,17.7-14.3,32-32,32h-64C462.3,448,448,433.7,448,416z M456,88c0-30.9,25.1-56,56-56s56,25.1,56,56
	s-25.1,56-56,56S456,118.9,456,88z M576,245.7v84.7c10-11.3,16-26.1,16-42.3s-6-31.1-16-42.3V245.7z M320,32c35.3,0,64,28.7,64,64
	s-28.7,64-64,64s-64-28.7-64-64S284.7,32,320,32z M240,304c0,16.2,6,31,16,42.3v-84.6C246,273,240,287.8,240,304z M384,261.7v84.7
	c10-11.3,16-26.1,16-42.3s-6-31.1-16-42.3V261.7z M448,304c0,44.7-26.2,83.2-64,101.2V448c0,17.7-14.3,32-32,32h-64
	c-17.7,0-32-14.3-32-32v-42.8c-37.8-18-64-56.5-64-101.2c0-61.9,50.1-112,112-112h32C397.9,192,448,242.1,448,304z"/>
</svg>
